<mxfile host="app.diagrams.net" modified="2021-01-18T03:25:34.312Z" agent="5.0 (Windows NT 10.0; Win64; x64) AppleWebKit/537.36 (KHTML, like Gecko) Chrome/87.0.4280.141 Safari/537.36" etag="3kXyPUErPFmrfcWCMbpZ" version="14.2.4" type="github">
  <diagram id="C5RBs43oDa-KdzZeNtuy" name="Page-1">
    <mxGraphModel dx="1422" dy="706" grid="1" gridSize="10" guides="1" tooltips="1" connect="1" arrows="1" fold="1" page="1" pageScale="1" pageWidth="827" pageHeight="1169" math="0" shadow="0">
      <root>
        <mxCell id="WIyWlLk6GJQsqaUBKTNV-0" />
        <mxCell id="WIyWlLk6GJQsqaUBKTNV-1" parent="WIyWlLk6GJQsqaUBKTNV-0" />
        <mxCell id="u_LdJ9ugR7kKr22JzUWK-2" value="" style="edgeStyle=orthogonalEdgeStyle;rounded=0;orthogonalLoop=1;jettySize=auto;html=1;" edge="1" parent="WIyWlLk6GJQsqaUBKTNV-1" source="WIyWlLk6GJQsqaUBKTNV-3" target="u_LdJ9ugR7kKr22JzUWK-1">
          <mxGeometry relative="1" as="geometry" />
        </mxCell>
        <mxCell id="WIyWlLk6GJQsqaUBKTNV-3" value="systemd-remount-fs" style="rounded=1;whiteSpace=wrap;html=1;fontSize=12;glass=0;strokeWidth=1;shadow=0;" parent="WIyWlLk6GJQsqaUBKTNV-1" vertex="1">
          <mxGeometry x="485" y="120" width="120" height="40" as="geometry" />
        </mxCell>
        <mxCell id="u_LdJ9ugR7kKr22JzUWK-5" value="" style="edgeStyle=orthogonalEdgeStyle;rounded=0;orthogonalLoop=1;jettySize=auto;html=1;" edge="1" parent="WIyWlLk6GJQsqaUBKTNV-1" source="u_LdJ9ugR7kKr22JzUWK-1" target="u_LdJ9ugR7kKr22JzUWK-4">
          <mxGeometry relative="1" as="geometry" />
        </mxCell>
        <mxCell id="u_LdJ9ugR7kKr22JzUWK-1" value="cloud-init-local" style="rounded=1;whiteSpace=wrap;html=1;fontSize=12;glass=0;strokeWidth=1;shadow=0;" vertex="1" parent="WIyWlLk6GJQsqaUBKTNV-1">
          <mxGeometry x="291" y="200" width="120" height="40" as="geometry" />
        </mxCell>
        <mxCell id="u_LdJ9ugR7kKr22JzUWK-7" value="" style="edgeStyle=orthogonalEdgeStyle;rounded=0;orthogonalLoop=1;jettySize=auto;html=1;" edge="1" parent="WIyWlLk6GJQsqaUBKTNV-1" source="u_LdJ9ugR7kKr22JzUWK-4" target="u_LdJ9ugR7kKr22JzUWK-6">
          <mxGeometry relative="1" as="geometry" />
        </mxCell>
        <mxCell id="u_LdJ9ugR7kKr22JzUWK-4" value="cloud-init" style="rounded=1;whiteSpace=wrap;html=1;fontSize=12;glass=0;strokeWidth=1;shadow=0;" vertex="1" parent="WIyWlLk6GJQsqaUBKTNV-1">
          <mxGeometry x="291" y="320" width="120" height="40" as="geometry" />
        </mxCell>
        <mxCell id="u_LdJ9ugR7kKr22JzUWK-9" value="" style="edgeStyle=orthogonalEdgeStyle;rounded=0;orthogonalLoop=1;jettySize=auto;html=1;" edge="1" parent="WIyWlLk6GJQsqaUBKTNV-1" source="u_LdJ9ugR7kKr22JzUWK-6" target="u_LdJ9ugR7kKr22JzUWK-8">
          <mxGeometry relative="1" as="geometry" />
        </mxCell>
        <mxCell id="u_LdJ9ugR7kKr22JzUWK-6" value="cloud-config" style="rounded=1;whiteSpace=wrap;html=1;fontSize=12;glass=0;strokeWidth=1;shadow=0;" vertex="1" parent="WIyWlLk6GJQsqaUBKTNV-1">
          <mxGeometry x="291" y="440" width="120" height="40" as="geometry" />
        </mxCell>
        <mxCell id="u_LdJ9ugR7kKr22JzUWK-8" value="cloud-final" style="rounded=1;whiteSpace=wrap;html=1;fontSize=12;glass=0;strokeWidth=1;shadow=0;" vertex="1" parent="WIyWlLk6GJQsqaUBKTNV-1">
          <mxGeometry x="291" y="560" width="120" height="40" as="geometry" />
        </mxCell>
        <mxCell id="u_LdJ9ugR7kKr22JzUWK-10" value="systemd-networkd-wait-online&lt;br&gt;networking" style="rounded=1;whiteSpace=wrap;html=1;fontSize=12;glass=0;strokeWidth=1;shadow=0;" vertex="1" parent="WIyWlLk6GJQsqaUBKTNV-1">
          <mxGeometry x="485" y="250" width="120" height="40" as="geometry" />
        </mxCell>
        <mxCell id="u_LdJ9ugR7kKr22JzUWK-13" value="shutdown" style="rounded=1;whiteSpace=wrap;html=1;fontSize=12;glass=0;strokeWidth=1;shadow=0;" vertex="1" parent="WIyWlLk6GJQsqaUBKTNV-1">
          <mxGeometry x="110" y="260" width="120" height="40" as="geometry" />
        </mxCell>
        <mxCell id="u_LdJ9ugR7kKr22JzUWK-14" value="&lt;div&gt;&lt;span&gt;	&lt;/span&gt;Before=sshd-keygen.service&lt;/div&gt;&lt;div&gt;&lt;span&gt;	&lt;/span&gt;Before=sshd.service&lt;/div&gt;&lt;div&gt;&lt;span&gt;	&lt;/span&gt;Before=sysinit.target&lt;/div&gt;" style="rounded=1;whiteSpace=wrap;html=1;fontSize=12;glass=0;strokeWidth=1;shadow=0;" vertex="1" parent="WIyWlLk6GJQsqaUBKTNV-1">
          <mxGeometry x="485" y="370" width="195" height="60" as="geometry" />
        </mxCell>
      </root>
    </mxGraphModel>
  </diagram>
</mxfile>
